# xmcd CD database file
#
# Track frame offsets:
#	150
#	6287
#	11870
#	18192
#	24297
#	27472
#	31415
#	36070
#	41705
#	46887
#	53187
#	59002
#	65987
#	73337
#	79522
#	85075
#	91022
#	96667
#	102457
#	108240
#	111360
#	115255
#	120127
#	125875
#	131260
#	137565
#	143350
#	150215
#	157460
#	163762
#
# Disc length: 2240 seconds
#
# Revision: 0
# Processed by: cddbd v1.5.2PL0 Copyright (c) Steve Scherf et al.
# Submitted via: CDex 1.51
#
DISCID=9808be1e
DTITLE=Jean marc Allerme - Sax for Ever
DYEAR=1900
DGENRE=Jazz
TTITLE0=Just in
TTITLE1=Care Free
TTITLE2=With Grab
TTITLE3=Walkin' in a Louisiana street
TTITLE4=Dede in the middle
TTITLE5=Call-back
TTITLE6=Two stomp for you
TTITLE7=Robert's Tune
TTITLE8=Why 34'
TTITLE9=As she like it
TTITLE10=Around it
TTITLE11=Eastern Nostagia
TTITLE12=Up and down Blues
TTITLE13=Hi Chazz
TTITLE14=Coming together
TTITLE15=Accomp-Just in 
TTITLE16=Accomp-Care free
TTITLE17=Accomp-With Grab
TTITLE18=Accomp-Walkin'in a louisiana street
TTITLE19=Accomp-Dede in the middle
TTITLE20=Accomp-Call back
TTITLE21=Accomp-Two stomp for you
TTITLE22=Accomp-Robert's tune
TTITLE23=Accomp-Why 34'
TTITLE24=Accomp-As she like it
TTITLE25=Accomp-Around it
TTITLE26=Accomp-Eastern Nostalgia
TTITLE27=Accomp-Up an down Blues
TTITLE28=Accomp-Hi Chazz
TTITLE29=Accomp-Coming together
EXTD=
EXTT0=
EXTT1=
EXTT2=
EXTT3=
EXTT4=
EXTT5=
EXTT6=
EXTT7=
EXTT8=
EXTT9=
EXTT10=
EXTT11=
EXTT12=
EXTT13=
EXTT14=
EXTT15=
EXTT16=
EXTT17=
EXTT18=
EXTT19=
EXTT20=
EXTT21=
EXTT22=
EXTT23=
EXTT24=
EXTT25=
EXTT26=
EXTT27=
EXTT28=
EXTT29=
PLAYORDER=
